<?xml version="1.0" encoding="UTF-8"?>
<!DOCTYPE svg PUBLIC "-//W3C//DTD SVG 1.1//EN" "http://www.w3.org/Graphics/SVG/1.1/DTD/svg11.dtd">
<svg xmlns="http://www.w3.org/2000/svg" version="1.1" width="570px" height="438px" style="shape-rendering:geometricPrecision; text-rendering:geometricPrecision; image-rendering:optimizeQuality; fill-rule:evenodd; clip-rule:evenodd" xmlns:xlink="http://www.w3.org/1999/xlink">
<g><path style="opacity:0.987" fill="#201e1b" d="M 358.5,31.5 C 362.213,33.685 366.213,35.3517 370.5,36.5C 377.103,38.7701 381.769,43.1034 384.5,49.5C 383.175,48.0474 382.342,48.3808 382,50.5C 381.182,45.2063 380.682,45.2063 380.5,50.5C 376.505,44.8397 371.172,41.173 364.5,39.5C 362.751,38.0149 360.751,37.0149 358.5,36.5C 355.855,34.6896 352.855,33.6896 349.5,33.5C 335.379,31.23 321.212,29.23 307,27.5C 284.837,28.3162 262.67,29.1495 240.5,30C 234.89,31.2428 229.224,32.0761 223.5,32.5C 220.813,32.3359 218.146,32.5026 215.5,33C 211.683,35.4383 207.683,37.2716 203.5,38.5C 197.135,38.6871 191.801,41.0205 187.5,45.5C 186.167,45.8333 184.833,46.1667 183.5,46.5C 182.098,46.2638 180.598,45.9305 179,45.5C 177.174,46.0104 177.007,46.8438 178.5,48C 172.752,52.0836 170.419,57.5836 171.5,64.5C 170.205,67.3795 169.538,70.3795 169.5,73.5C 168.096,66.2641 168.263,58.9308 170,51.5C 177.219,44.0479 185.719,38.7146 195.5,35.5C 198.495,35.7062 201.162,35.0395 203.5,33.5C 207.227,33.5047 210.227,32.1714 212.5,29.5C 222.532,27.4632 232.698,25.4632 243,23.5C 259.811,24.0267 276.644,24.0267 293.5,23.5C 312.053,22.575 330.387,24.075 348.5,28C 352.109,28.7013 355.442,29.8679 358.5,31.5 Z"/></g>
<g><path style="opacity:0.431" fill="#949197" d="M 212.5,29.5 C 210.227,32.1714 207.227,33.5047 203.5,33.5C 206.388,32.0204 209.388,30.6871 212.5,29.5 Z"/></g>
<g><path style="opacity:1" fill="#58501d" d="M 349.5,33.5 C 352.855,33.6896 355.855,34.6896 358.5,36.5C 355.145,36.3104 352.145,35.3104 349.5,33.5 Z"/></g>
<g><path style="opacity:0.447" fill="#919290" d="M 203.5,33.5 C 201.162,35.0395 198.495,35.7062 195.5,35.5C 197.905,34.2318 200.572,33.5651 203.5,33.5 Z"/></g>
<g><path style="opacity:1" fill="#7f733f" d="M 223.5,32.5 C 217.066,34.8533 210.399,36.8533 203.5,38.5C 207.683,37.2716 211.683,35.4383 215.5,33C 218.146,32.5026 220.813,32.3359 223.5,32.5 Z"/></g>
<g><path style="opacity:0.141" fill="#8f9390" d="M 358.5,31.5 C 363.017,32.0966 367.017,33.7633 370.5,36.5C 366.213,35.3517 362.213,33.685 358.5,31.5 Z"/></g>
<g><path style="opacity:1" fill="#e5d577" d="M 349.5,33.5 C 352.145,35.3104 355.145,36.3104 358.5,36.5C 360.751,37.0149 362.751,38.0149 364.5,39.5C 362.833,39.5 361.167,39.5 359.5,39.5C 359.5,40.5 359.5,41.5 359.5,42.5C 363.157,42.1201 364.157,43.4534 362.5,46.5C 362.785,48.5688 363.952,49.9021 366,50.5C 366.494,52.1341 366.66,53.8008 366.5,55.5C 361.414,47.9367 354.414,42.7701 345.5,40C 336.128,38.1076 326.795,36.9409 317.5,36.5C 311.216,34.6548 304.882,34.3215 298.5,35.5C 284.137,35.2358 269.804,35.5692 255.5,36.5C 253.401,37.6118 251.067,38.2785 248.5,38.5C 241.889,38.5473 235.556,39.5473 229.5,41.5C 224.17,42.8305 218.837,44.1639 213.5,45.5C 208.81,45.493 204.477,46.493 200.5,48.5C 200.5,47.5 200.5,46.5 200.5,45.5C 196.048,45.1773 191.715,45.1773 187.5,45.5C 191.801,41.0205 197.135,38.6871 203.5,38.5C 210.399,36.8533 217.066,34.8533 223.5,32.5C 229.224,32.0761 234.89,31.2428 240.5,30C 262.67,29.1495 284.837,28.3162 307,27.5C 321.212,29.23 335.379,31.23 349.5,33.5 Z"/></g>
<g><path style="opacity:1" fill="#6a5f2f" d="M 298.5,35.5 C 304.882,34.3215 311.216,34.6548 317.5,36.5C 311.171,36.1005 304.838,35.7671 298.5,35.5 Z"/></g>
<g><path style="opacity:1" fill="#f5e177" d="M 255.5,36.5 C 250.156,36.666 244.823,36.4994 239.5,36C 234.167,34.6667 234.167,33.3333 239.5,32C 255.007,31.684 270.507,31.184 286,30.5C 289.921,30.455 293.755,30.955 297.5,32C 285.311,33.2521 272.978,34.0855 260.5,34.5C 258.36,34.5561 256.694,35.2227 255.5,36.5 Z"/></g>
<g><path style="opacity:1" fill="#4c4917" d="M 248.5,38.5 C 242.379,40.0191 236.046,41.0191 229.5,41.5C 235.556,39.5473 241.889,38.5473 248.5,38.5 Z"/></g>
<g><path style="opacity:1" fill="#cdc06f" d="M 364.5,39.5 C 371.172,41.173 376.505,44.8397 380.5,50.5C 381.567,55.7815 381.733,61.1149 381,66.5C 380.722,67.4158 380.222,68.0825 379.5,68.5C 380.88,63.0805 380.713,57.7472 379,52.5C 377.268,50.7173 375.768,48.7173 374.5,46.5C 372.257,45.5258 369.924,45.1924 367.5,45.5C 367.545,42.9228 366.545,40.9228 364.5,39.5 Z"/></g>
<g><path style="opacity:0.995" fill="#100f0e" d="M 298.5,35.5 C 304.838,35.7671 311.171,36.1005 317.5,36.5C 326.795,36.9409 336.128,38.1076 345.5,40C 354.414,42.7701 361.414,47.9367 366.5,55.5C 366.649,58.6074 366.149,61.6074 365,64.5C 361.87,66.628 359.037,69.128 356.5,72C 353.408,73.5459 350.408,75.0459 347.5,76.5C 333.189,79.062 318.855,81.562 304.5,84C 294.156,84.6385 283.823,84.4719 273.5,83.5C 255.46,85.8952 237.46,85.5619 219.5,82.5C 210.54,80.5517 201.54,78.2184 192.5,75.5C 188.861,73.4254 185.695,70.7587 183,67.5C 182.506,65.8659 182.34,64.1992 182.5,62.5C 184.082,62.4754 185.749,62.3088 187.5,62C 184.997,63.7839 184.997,65.4506 187.5,67C 186.549,67.7175 186.383,68.5509 187,69.5C 188.707,68.8617 190.54,68.8617 192.5,69.5C 199.442,66.0288 206.442,62.5288 213.5,59C 218.108,57.5148 222.774,56.3481 227.5,55.5C 231.159,55.8506 234.159,54.8506 236.5,52.5C 239.534,50.9823 242.867,50.1489 246.5,50C 265.425,47.9403 284.092,46.107 302.5,44.5C 322.902,45.9517 342.569,50.1183 361.5,57C 356.918,51.0309 350.918,47.0309 343.5,45C 335.292,43.0489 326.959,42.0489 318.5,42C 317.263,41.7679 316.263,41.2679 315.5,40.5C 298.672,39.3383 281.672,39.1716 264.5,40C 262.942,40.21 261.609,40.71 260.5,41.5C 254.725,43.1003 248.725,44.1003 242.5,44.5C 238.267,44.5387 234.267,45.2053 230.5,46.5C 218.436,49.6327 206.436,52.966 194.5,56.5C 193.265,56.2786 192.265,55.6119 191.5,54.5C 190.787,56.435 189.787,56.7683 188.5,55.5C 188.953,54.5416 189.619,53.7083 190.5,53C 198.61,51.5984 206.277,49.0984 213.5,45.5C 218.837,44.1639 224.17,42.8305 229.5,41.5C 236.046,41.0191 242.379,40.0191 248.5,38.5C 251.067,38.2785 253.401,37.6118 255.5,36.5C 269.804,35.5692 284.137,35.2358 298.5,35.5 Z"/></g>
<g><path style="opacity:0.045" fill="#d0cdcf" d="M 242.5,44.5 C 238.764,45.9891 234.764,46.6558 230.5,46.5C 234.267,45.2053 238.267,44.5387 242.5,44.5 Z"/></g>
<g><path style="opacity:0.067" fill="#9ea29e" d="M 315.5,40.5 C 297.143,40.2338 278.81,40.5672 260.5,41.5C 261.609,40.71 262.942,40.21 264.5,40C 281.672,39.1716 298.672,39.3383 315.5,40.5 Z"/></g>
<g><path style="opacity:0.998" fill="#060607" d="M 183.5,46.5 C 172.089,53.7237 169.422,63.3904 175.5,75.5C 176.716,77.4509 178.382,78.9509 180.5,80C 186.965,83.4004 193.298,87.067 199.5,91C 210.378,93.6252 221.378,95.4586 232.5,96.5C 241.324,96.5549 250.324,97.2215 259.5,98.5C 274.458,97.0013 289.458,96.168 304.5,96C 309.076,95.2498 313.409,94.0832 317.5,92.5C 326.804,91.1841 336.137,90.0175 345.5,89C 349.619,88.3559 353.285,86.8559 356.5,84.5C 366.89,83.1135 374.557,77.7802 379.5,68.5C 380.222,68.0825 380.722,67.4158 381,66.5C 381.733,61.1149 381.567,55.7815 380.5,50.5C 380.682,45.2063 381.182,45.2063 382,50.5C 382.342,48.3808 383.175,48.0474 384.5,49.5C 386.134,55.2385 386.967,61.2385 387,67.5C 391.167,70.3333 395.333,73.1667 399.5,76C 409.946,86.4459 420.446,96.9459 431,107.5C 434.085,112.672 437.419,117.672 441,122.5C 444.703,131.328 448.703,139.994 453,148.5C 456.861,169.808 458.695,191.308 458.5,213C 458.893,236.49 451.726,257.323 437,275.5C 431.89,279.781 426.39,283.448 420.5,286.5C 418.973,286.427 417.973,287.094 417.5,288.5C 410.996,293.255 403.996,297.255 396.5,300.5C 391.937,302.286 387.604,304.286 383.5,306.5C 379.652,308.004 375.652,309.004 371.5,309.5C 372.403,327.322 372.57,345.322 372,363.5C 370.272,366.953 367.438,368.786 363.5,369C 357.618,374.44 350.951,378.607 343.5,381.5C 339.668,381.882 336.335,383.215 333.5,385.5C 332.158,386.793 330.491,387.626 328.5,388C 321.879,389.491 315.212,390.658 308.5,391.5C 297.617,391.144 286.951,391.81 276.5,393.5C 271.015,394.652 265.349,394.818 259.5,394C 250.242,392.188 240.908,390.855 231.5,390C 223.333,388.238 215.666,385.405 208.5,381.5C 205.485,379.326 202.151,377.659 198.5,376.5C 194.585,374.026 191.085,371.026 188,367.5C 186.733,359.404 185.899,351.237 185.5,343C 185.506,340.967 185.839,339.134 186.5,337.5C 187.833,331.167 187.833,324.833 186.5,318.5C 186.5,317.833 186.5,317.167 186.5,316.5C 187.477,313.713 187.81,310.713 187.5,307.5C 186.167,307.5 184.833,307.5 183.5,307.5C 180.146,305.742 176.479,304.742 172.5,304.5C 167.873,304.427 163.54,303.26 159.5,301C 153.89,295.544 147.89,290.71 141.5,286.5C 141.027,285.094 140.027,284.427 138.5,284.5C 136.833,280.833 134.167,278.167 130.5,276.5C 127.482,275.647 125.649,273.647 125,270.5C 117.286,264.114 111.953,256.114 109,246.5C 101.139,222.223 100.805,197.889 108,173.5C 115.705,152.088 126.039,132.088 139,113.5C 146.5,105.333 154,97.1667 161.5,89C 165.278,86.888 168.778,84.388 172,81.5C 171.114,78.9995 170.28,76.3329 169.5,73.5C 169.538,70.3795 170.205,67.3795 171.5,64.5C 170.419,57.5836 172.752,52.0836 178.5,48C 177.007,46.8438 177.174,46.0104 179,45.5C 180.598,45.9305 182.098,46.2638 183.5,46.5 Z"/></g>
<g><path style="opacity:0.967" fill="#2e2c28" d="M 194.5,56.5 C 191.912,58.9565 189.579,61.6232 187.5,64.5C 188.882,66.5486 190.548,68.2153 192.5,69.5C 190.54,68.8617 188.707,68.8617 187,69.5C 186.383,68.5509 186.549,67.7175 187.5,67C 184.997,65.4506 184.997,63.7839 187.5,62C 185.749,62.3088 184.082,62.4754 182.5,62.5C 183.092,58.9111 185.092,56.5778 188.5,55.5C 189.787,56.7683 190.787,56.435 191.5,54.5C 192.265,55.6119 193.265,56.2786 194.5,56.5 Z"/></g>
<g><path style="opacity:0.031" fill="#9d9d9d" d="M 236.5,52.5 C 234.159,54.8506 231.159,55.8506 227.5,55.5C 230.341,54.3307 233.341,53.3307 236.5,52.5 Z"/></g>
<g><path style="opacity:1" fill="#092d44" d="M 319.5,65.5 C 318.015,66.9349 316.682,66.7683 315.5,65C 310.667,64.8333 305.833,64.6667 301,64.5C 286.819,65.2934 272.652,66.2934 258.5,67.5C 275.825,63.5599 293.492,62.0599 311.5,63C 314.457,63.2794 317.123,64.1127 319.5,65.5 Z"/></g>
<g><path style="opacity:1" fill="#043f62" d="M 319.5,65.5 C 328.755,65.8137 337.422,67.9804 345.5,72C 332.542,74.5609 319.542,76.7276 306.5,78.5C 289.642,79.1434 272.809,80.1434 256,81.5C 246.571,80.1912 237.071,79.3579 227.5,79C 224.957,78.8603 222.623,78.1937 220.5,77C 232.709,72.2812 245.375,69.1145 258.5,67.5C 272.652,66.2934 286.819,65.2934 301,64.5C 305.833,64.6667 310.667,64.8333 315.5,65C 316.682,66.7683 318.015,66.9349 319.5,65.5 Z"/></g>
<g><path style="opacity:1" fill="#dbcd80" d="M 187.5,45.5 C 187.279,46.7348 186.612,47.7348 185.5,48.5C 185.709,49.086 186.043,49.586 186.5,50C 184.473,49.5022 182.473,49.6689 180.5,50.5C 179.754,51.7362 179.421,53.0695 179.5,54.5C 178.5,54.5 177.5,54.5 176.5,54.5C 175.088,57.4264 174.422,60.593 174.5,64C 174.89,67.8348 175.223,71.6681 175.5,75.5C 169.422,63.3904 172.089,53.7237 183.5,46.5C 184.833,46.1667 186.167,45.8333 187.5,45.5 Z"/></g>
<g><path style="opacity:1" fill="#d9cc78" d="M 213.5,45.5 C 206.277,49.0984 198.61,51.5984 190.5,53C 189.619,53.7083 188.953,54.5416 188.5,55.5C 185.092,56.5778 183.092,58.9111 182.5,62.5C 182.34,64.1992 182.506,65.8659 183,67.5C 185.695,70.7587 188.861,73.4254 192.5,75.5C 188.856,74.6849 185.189,73.8516 181.5,73C 180.978,72.4387 180.645,71.772 180.5,71C 180.064,66.1696 180.564,61.3363 182,56.5C 183.401,54.8078 185.234,54.1412 187.5,54.5C 187.5,53.5 187.5,52.5 187.5,51.5C 192.088,51.326 196.422,50.326 200.5,48.5C 204.477,46.493 208.81,45.493 213.5,45.5 Z"/></g>
<g><path style="opacity:1" fill="#d9cc75" d="M 366.5,55.5 C 368.046,59.6424 367.546,63.6424 365,67.5C 362.177,68.3287 360.343,70.1621 359.5,73C 355.693,74.8808 351.693,76.0474 347.5,76.5C 350.408,75.0459 353.408,73.5459 356.5,72C 359.037,69.128 361.87,66.628 365,64.5C 366.149,61.6074 366.649,58.6074 366.5,55.5 Z"/></g>
<g><path style="opacity:1" fill="#efdd73" d="M 200.5,48.5 C 196.422,50.326 192.088,51.326 187.5,51.5C 187.5,52.5 187.5,53.5 187.5,54.5C 185.234,54.1412 183.401,54.8078 182,56.5C 180.564,61.3363 180.064,66.1696 180.5,71C 180.645,71.772 180.978,72.4387 181.5,73C 185.189,73.8516 188.856,74.6849 192.5,75.5C 201.54,78.2184 210.54,80.5517 219.5,82.5C 214.473,82.4971 209.473,82.1637 204.5,81.5C 204.5,82.5 204.5,83.5 204.5,84.5C 205.552,84.3505 206.552,84.5172 207.5,85C 205.231,85.7581 203.064,85.5914 201,84.5C 200.5,85 200,85.5 199.5,86C 200.38,87.3561 200.714,88.8561 200.5,90.5C 203.448,90.7771 206.281,90.4438 209,89.5C 209.692,90.0253 210.192,90.6919 210.5,91.5C 219.232,93.1674 227.899,94.834 236.5,96.5C 235.167,96.5 233.833,96.5 232.5,96.5C 221.378,95.4586 210.378,93.6252 199.5,91C 193.298,87.067 186.965,83.4004 180.5,80C 178.382,78.9509 176.716,77.4509 175.5,75.5C 175.223,71.6681 174.89,67.8348 174.5,64C 174.422,60.593 175.088,57.4264 176.5,54.5C 177.5,54.5 178.5,54.5 179.5,54.5C 179.421,53.0695 179.754,51.7362 180.5,50.5C 182.473,49.6689 184.473,49.5022 186.5,50C 186.043,49.586 185.709,49.086 185.5,48.5C 186.612,47.7348 187.279,46.7348 187.5,45.5C 191.715,45.1773 196.048,45.1773 200.5,45.5C 200.5,46.5 200.5,47.5 200.5,48.5 Z"/></g>
<g><path style="opacity:1" fill="#eedd7d" d="M 356.5,84.5 C 353.285,86.8559 349.619,88.3559 345.5,89C 336.137,90.0175 326.804,91.1841 317.5,92.5C 323.126,89.8972 329.126,87.7305 335.5,86C 339.841,85.9068 344.174,85.9068 348.5,86C 349.047,85.0754 349.713,84.2421 350.5,83.5C 352.409,84.3482 354.409,84.6816 356.5,84.5 Z"/></g>
<g><path style="opacity:1" fill="#f5e26e" d="M 219.5,82.5 C 223.141,84.1367 227.141,85.3033 231.5,86C 236.167,86.3333 240.833,86.6667 245.5,87C 244.167,87.3333 242.833,87.6667 241.5,88C 244.208,88.2361 246.708,89.0695 249,90.5C 251.312,89.1478 253.812,88.4812 256.5,88.5C 262.19,88.6953 267.69,89.6953 273,91.5C 273.5,91.1667 274,90.8333 274.5,90.5C 273.833,89.8333 273.167,89.1667 272.5,88.5C 273.852,87.1038 275.519,86.4371 277.5,86.5C 287.467,86.6705 297.467,86.8372 307.5,87C 306.167,87.6667 306.167,88.3333 307.5,89C 310.146,89.4974 312.813,89.6641 315.5,89.5C 315.5,90.5 315.5,91.5 315.5,92.5C 297.297,93.904 278.963,95.2374 260.5,96.5C 252.464,95.6927 244.464,95.6927 236.5,96.5C 227.899,94.834 219.232,93.1674 210.5,91.5C 210.192,90.6919 209.692,90.0253 209,89.5C 206.281,90.4438 203.448,90.7771 200.5,90.5C 200.714,88.8561 200.38,87.3561 199.5,86C 200,85.5 200.5,85 201,84.5C 203.064,85.5914 205.231,85.7581 207.5,85C 206.552,84.5172 205.552,84.3505 204.5,84.5C 204.5,83.5 204.5,82.5 204.5,81.5C 209.473,82.1637 214.473,82.4971 219.5,82.5 Z"/></g>
<g><path style="opacity:1" fill="#004066" d="M 212.5,267.5 C 210.08,267.708 207.747,267.374 205.5,266.5C 203.998,267.083 202.665,267.916 201.5,269C 202.167,269.333 202.833,269.667 203.5,270C 200.828,270.834 198.161,271.668 195.5,272.5C 192.117,277.696 188.451,282.696 184.5,287.5C 183.167,286.833 182.167,285.833 181.5,284.5C 175.988,284.018 170.655,282.851 165.5,281C 164.643,280.311 163.977,279.478 163.5,278.5C 164.711,277.28 164.711,276.113 163.5,275C 160.883,274.178 158.216,273.678 155.5,273.5C 155.5,272.5 155.5,271.5 155.5,270.5C 152.679,270.684 151.012,269.351 150.5,266.5C 148.082,265.585 146.082,264.085 144.5,262C 143.552,261.517 142.552,261.351 141.5,261.5C 137.816,258.315 134.316,254.982 131,251.5C 130.439,249.275 129.439,247.275 128,245.5C 127.333,243.167 127.333,240.833 128,238.5C 132.11,232.237 137.11,226.903 143,222.5C 160.128,200.812 170.461,176.145 174,148.5C 174.667,137.833 174.667,127.167 174,116.5C 173.44,112.88 171.94,109.713 169.5,107C 174.796,102.375 180.13,97.7088 185.5,93C 187.01,92.1502 188.51,91.3169 190,90.5C 192.937,92.719 196.104,94.5524 199.5,96C 242.613,104.599 285.613,104.266 328.5,95C 345.452,94.8983 360.952,90.3983 375,81.5C 378.49,83.651 381.99,85.8176 385.5,88C 392.269,94.3482 398.936,100.848 405.5,107.5C 402.862,111.111 401.029,115.111 400,119.5C 397.37,130.7 395.036,142.033 393,153.5C 389.256,175.24 392.922,195.573 404,214.5C 412.557,226.295 422.39,236.628 433.5,245.5C 430.849,252.306 427.183,258.473 422.5,264C 409.665,271.919 396.665,279.585 383.5,287C 378.977,288.797 374.31,289.964 369.5,290.5C 369.665,287.482 369.498,284.482 369,281.5C 366.618,280.016 364.451,278.182 362.5,276C 356.009,272.922 349.675,269.588 343.5,266C 319.038,258.879 294.038,256.212 268.5,258C 257.93,259.994 247.264,261.327 236.5,262C 228.335,263.208 220.335,265.042 212.5,267.5 Z"/></g>
<g><path style="opacity:1" fill="#f3e073" d="M 364.5,39.5 C 366.545,40.9228 367.545,42.9228 367.5,45.5C 369.924,45.1924 372.257,45.5258 374.5,46.5C 375.768,48.7173 377.268,50.7173 379,52.5C 380.713,57.7472 380.88,63.0805 379.5,68.5C 374.557,77.7802 366.89,83.1135 356.5,84.5C 354.409,84.6816 352.409,84.3482 350.5,83.5C 349.713,84.2421 349.047,85.0754 348.5,86C 344.174,85.9068 339.841,85.9068 335.5,86C 329.126,87.7305 323.126,89.8972 317.5,92.5C 316.833,92.5 316.167,92.5 315.5,92.5C 315.5,91.5 315.5,90.5 315.5,89.5C 312.813,89.6641 310.146,89.4974 307.5,89C 306.167,88.3333 306.167,87.6667 307.5,87C 297.467,86.8372 287.467,86.6705 277.5,86.5C 275.519,86.4371 273.852,87.1038 272.5,88.5C 273.167,89.1667 273.833,89.8333 274.5,90.5C 274,90.8333 273.5,91.1667 273,91.5C 267.69,89.6953 262.19,88.6953 256.5,88.5C 253.812,88.4812 251.312,89.1478 249,90.5C 246.708,89.0695 244.208,88.2361 241.5,88C 242.833,87.6667 244.167,87.3333 245.5,87C 240.833,86.6667 236.167,86.3333 231.5,86C 227.141,85.3033 223.141,84.1367 219.5,82.5C 237.46,85.5619 255.46,85.8952 273.5,83.5C 283.823,84.4719 294.156,84.6385 304.5,84C 318.855,81.562 333.189,79.062 347.5,76.5C 351.693,76.0474 355.693,74.8808 359.5,73C 360.343,70.1621 362.177,68.3287 365,67.5C 367.546,63.6424 368.046,59.6424 366.5,55.5C 366.66,53.8008 366.494,52.1341 366,50.5C 363.952,49.9021 362.785,48.5688 362.5,46.5C 364.157,43.4534 363.157,42.1201 359.5,42.5C 359.5,41.5 359.5,40.5 359.5,39.5C 361.167,39.5 362.833,39.5 364.5,39.5 Z"/></g>
<g><path style="opacity:1" fill="#d4c673" d="M 315.5,92.5 C 316.167,92.5 316.833,92.5 317.5,92.5C 313.409,94.0832 309.076,95.2498 304.5,96C 289.458,96.168 274.458,97.0013 259.5,98.5C 250.324,97.2215 241.324,96.5549 232.5,96.5C 233.833,96.5 235.167,96.5 236.5,96.5C 244.464,95.6927 252.464,95.6927 260.5,96.5C 278.963,95.2374 297.297,93.904 315.5,92.5 Z"/></g>
<g><path style="opacity:1" fill="#f8f8f8" d="M 155.5,122.5 C 156.492,129.982 156.825,137.648 156.5,145.5C 156.318,151.257 155.485,156.924 154,162.5C 150.469,169.888 147.803,177.555 146,185.5C 140.409,198.033 132.409,208.699 122,217.5C 121.021,212.889 120.521,208.223 120.5,203.5C 121.05,196.399 122.217,189.399 124,182.5C 127.875,173.201 131.542,163.868 135,154.5C 140.519,146.128 145.519,137.461 150,128.5C 152.068,126.604 153.901,124.604 155.5,122.5 Z"/></g>
<g><path style="opacity:1" fill="#f9f9f9" d="M 417.5,120.5 C 421.805,125.755 425.639,131.422 429,137.5C 430.413,142.74 432.413,147.74 435,152.5C 435.617,157.253 436.617,161.92 438,166.5C 439.608,185.469 440.275,204.469 440,223.5C 439.751,224.624 439.251,225.624 438.5,226.5C 423.988,215.471 414.488,201.138 410,183.5C 410.055,172.176 410.388,160.843 411,149.5C 413.013,139.784 415.179,130.117 417.5,120.5 Z"/></g>
<g><path style="opacity:1" fill="#aaaaaa" d="M 155.5,122.5 C 155.56,121.957 155.893,121.624 156.5,121.5C 157.82,129.657 157.82,137.657 156.5,145.5C 156.825,137.648 156.492,129.982 155.5,122.5 Z"/></g>
<g><path style="opacity:0.486" fill="#737373" d="M 130.5,276.5 C 134.167,278.167 136.833,280.833 138.5,284.5C 135.5,282.167 132.833,279.5 130.5,276.5 Z"/></g>
<g><path style="opacity:1" fill="#d9c9a8" d="M 346.5,287.5 C 346.828,290.172 348.328,291.839 351,292.5C 353.088,313.448 353.922,334.448 353.5,355.5C 349.388,357.728 345.388,360.228 341.5,363C 330.775,367.531 319.775,371.198 308.5,374C 295.337,374.597 282.17,375.097 269,375.5C 260.465,375.068 251.965,374.401 243.5,373.5C 238.95,372.509 234.283,371.509 229.5,370.5C 222.701,367.215 215.701,364.381 208.5,362C 206.951,360.786 205.785,359.286 205,357.5C 204.5,340.837 204.333,324.17 204.5,307.5C 205.29,306.391 205.79,305.058 206,303.5C 206.499,298.845 206.666,294.179 206.5,289.5C 210.517,287.802 214.517,286.135 218.5,284.5C 222.394,283.483 226.227,283.483 230,284.5C 230.374,283.584 230.874,282.75 231.5,282C 236.732,281.273 241.732,280.107 246.5,278.5C 256.478,278.846 266.311,277.846 276,275.5C 294.313,275.605 312.48,277.105 330.5,280C 335.906,282.41 341.239,284.91 346.5,287.5 Z"/></g>
<g><path style="opacity:1" fill="#a49984" d="M 246.5,278.5 C 241.732,280.107 236.732,281.273 231.5,282C 230.874,282.75 230.374,283.584 230,284.5C 226.227,283.483 222.394,283.483 218.5,284.5C 227.367,280.858 236.701,278.858 246.5,278.5 Z"/></g>
<g><path style="opacity:1" fill="#0a3b57" d="M 141.5,261.5 C 142.552,261.351 143.552,261.517 144.5,262C 146.082,264.085 148.082,265.585 150.5,266.5C 151.012,269.351 152.679,270.684 155.5,270.5C 155.5,271.5 155.5,272.5 155.5,273.5C 158.216,273.678 160.883,274.178 163.5,275C 164.711,276.113 164.711,277.28 163.5,278.5C 163.977,279.478 164.643,280.311 165.5,281C 170.655,282.851 175.988,284.018 181.5,284.5C 182.167,285.833 183.167,286.833 184.5,287.5C 188.451,282.696 192.117,277.696 195.5,272.5C 198.161,271.668 200.828,270.834 203.5,270C 202.833,269.667 202.167,269.333 201.5,269C 202.665,267.916 203.998,267.083 205.5,266.5C 207.747,267.374 210.08,267.708 212.5,267.5C 207.807,270.129 202.807,272.295 197.5,274C 192.773,278.303 189.773,283.47 188.5,289.5C 181.151,288.995 174.151,287.161 167.5,284C 158.005,277.33 149.339,269.83 141.5,261.5 Z"/></g>
<g><path style="opacity:0.169" fill="#9f9f9f" d="M 138.5,284.5 C 140.027,284.427 141.027,285.094 141.5,286.5C 139.973,286.573 138.973,285.906 138.5,284.5 Z"/></g>
<g><path style="opacity:0.004" fill="#d5d5d5" d="M 420.5,286.5 C 420.027,287.906 419.027,288.573 417.5,288.5C 417.973,287.094 418.973,286.427 420.5,286.5 Z"/></g>
<g><path style="opacity:1" fill="#463e2f" d="M 206.5,289.5 C 206.666,294.179 206.499,298.845 206,303.5C 205.79,305.058 205.29,306.391 204.5,307.5C 204.918,301.331 205.585,295.331 206.5,289.5 Z"/></g>
<g><path style="opacity:0.267" fill="#888888" d="M 396.5,300.5 C 392.856,303.819 388.523,305.819 383.5,306.5C 387.604,304.286 391.937,302.286 396.5,300.5 Z"/></g>
<g><path style="opacity:1" fill="#0c0906" d="M 242.5,302.5 C 244.993,302.329 246.826,303.329 248,305.5C 248.01,315.262 248.844,324.929 250.5,334.5C 248.767,340.449 245.267,341.783 240,338.5C 238.601,335.637 237.601,332.637 237,329.5C 236.333,321.833 236.333,314.167 237,306.5C 237.374,305.584 237.874,304.75 238.5,304C 240.058,303.79 241.391,303.29 242.5,302.5 Z"/></g>
<g><path style="opacity:1" fill="#0a0705" d="M 299.5,302.5 C 302.157,302.162 304.49,302.829 306.5,304.5C 307.573,315.827 308.073,327.16 308,338.5C 305,341.167 302,341.167 299,338.5C 295.93,328.713 294.93,318.713 296,308.5C 296.564,306.113 297.73,304.113 299.5,302.5 Z"/></g>
<g><path style="opacity:0.086" fill="#8c8c8c" d="M 172.5,304.5 C 176.479,304.742 180.146,305.742 183.5,307.5C 179.521,307.258 175.854,306.258 172.5,304.5 Z"/></g>
<g><path style="opacity:0.549" fill="#656565" d="M 183.5,307.5 C 184.833,307.5 186.167,307.5 187.5,307.5C 187.81,310.713 187.477,313.713 186.5,316.5C 186.316,314.144 186.316,311.477 186.5,308.5C 185.209,308.737 184.209,308.404 183.5,307.5 Z"/></g>
<g><path style="opacity:1" fill="#a39986" d="M 346.5,287.5 C 351.267,289.008 353.434,292.341 353,297.5C 354.682,316.979 354.849,336.313 353.5,355.5C 353.922,334.448 353.088,313.448 351,292.5C 348.328,291.839 346.828,290.172 346.5,287.5 Z"/></g>
<g><path style="opacity:0.55" fill="#5c5c5c" d="M 186.5,318.5 C 187.833,324.833 187.833,331.167 186.5,337.5C 186.397,331.377 186.397,325.044 186.5,318.5 Z"/></g>
<g><path style="opacity:1" fill="#89826d" d="M 229.5,370.5 C 234.283,371.509 238.95,372.509 243.5,373.5C 238.404,373.956 233.738,372.956 229.5,370.5 Z"/></g>
<g><path style="opacity:0.196" fill="#9b9b9b" d="M 198.5,376.5 C 202.151,377.659 205.485,379.326 208.5,381.5C 204.58,380.873 201.247,379.207 198.5,376.5 Z"/></g>
<g><path style="opacity:0.159" fill="#bebebe" d="M 343.5,381.5 C 340.482,383.4 337.149,384.733 333.5,385.5C 336.335,383.215 339.668,381.882 343.5,381.5 Z"/></g>
<g><path style="opacity:0.671" fill="#303030" d="M 308.5,391.5 C 298.007,392.51 287.341,393.177 276.5,393.5C 286.951,391.81 297.617,391.144 308.5,391.5 Z"/></g>
</svg>
